<?xml version="1.0" encoding="UTF-8" standalone="no"?>
<!-- Created with Inkscape (http://www.inkscape.org/) -->

<svg
   xmlns:dc="http://purl.org/dc/elements/1.1/"
   xmlns:cc="http://creativecommons.org/ns#"
   xmlns:rdf="http://www.w3.org/1999/02/22-rdf-syntax-ns#"
   xmlns:svg="http://www.w3.org/2000/svg"
   xmlns="http://www.w3.org/2000/svg"
   xmlns:sodipodi="http://sodipodi.sourceforge.net/DTD/sodipodi-0.dtd"
   xmlns:inkscape="http://www.inkscape.org/namespaces/inkscape"
   width="1200"
   height="1200"
   id="svg2"
   version="1.1"
   inkscape:version="0.48.4 r9939"
   sodipodi:docname="unit-ready.svg">
  <defs
     id="defs4" />
  <sodipodi:namedview
     id="base"
     pagecolor="#ffffff"
     bordercolor="#666666"
     borderopacity="1.0"
     inkscape:pageopacity="0.0"
     inkscape:pageshadow="2"
     inkscape:zoom="0.35"
     inkscape:cx="756.87319"
     inkscape:cy="651.41926"
     inkscape:document-units="px"
     inkscape:current-layer="layer1"
     showgrid="false"
     inkscape:window-width="1366"
     inkscape:window-height="705"
     inkscape:window-x="-8"
     inkscape:window-y="-8"
     inkscape:window-maximized="1" />
  <metadata
     id="metadata7">
    <rdf:RDF>
      <cc:Work
         rdf:about="">
        <dc:format>image/svg+xml</dc:format>
        <dc:type
           rdf:resource="http://purl.org/dc/dcmitype/StillImage" />
        <dc:title />
      </cc:Work>
    </rdf:RDF>
  </metadata>
  <g
     inkscape:label="Layer 1"
     inkscape:groupmode="layer"
     id="layer1">
    <path
       id="path3173"
       d="m 767.81147,948.84575 c -19.20097,0.017 -53.52975,-38.75203 -74.58289,-53.55951 -2.18093,-1.53393 0.42357,-5.3019 0.50058,-7.96718 0.0952,-3.29149 0.0243,-6.59313 0.0417,-9.88598 -0.30182,-29.62673 0.69238,-59.26958 1.20967,-88.89039 0.3384,-35.00723 -0.0466,-70.25581 4.37987,-105.03335 1.42374,-6.74557 2.9188,-13.49852 4.505,-20.23083 -0.38815,-0.92915 -0.7314,-1.77894 -1.16795,-2.79476 -8.88654,-20.67715 -21.891,-39.11657 -36.91602,-55.7703 -22.45075,-24.76668 -43.82979,-50.54299 -68.32592,-73.37318 -3.67024,-3.15168 -7.2859,-6.41791 -10.97053,-9.55226 -0.93502,-0.29014 -1.86506,-0.57109 -2.79476,-0.87597 -3.93717,-0.45526 -7.88515,-1.24946 -11.84649,-1.37653 -3.59586,-0.11535 -7.1738,0.36406 -10.76196,0.62569 -12.63391,0.92115 -25.16963,2.66558 -36.83262,7.92547 -3.10358,1.60251 -6.31158,2.99204 -9.30199,4.79699 -17.68843,10.6764 -30.3607,27.27692 -39.7525,45.38374 -4.6476,10.59175 -7.61221,16.57606 -11.05396,27.69745 -6.03185,19.49084 -7.82209,39.91413 -7.50833,60.23358 -0.0198,10.78393 0.021,21.59144 0.16685,32.36929 0.0967,1.4508 0.19032,2.88739 0.292,4.33816 3.33686,39.19778 6.6521,78.40446 9.0517,117.67238 0.52882,24.54083 2.57032,49.16871 1.08455,73.70689 0.29786,0.36553 0.4311,0.61657 0,0.41712 -0.05,0.80355 -0.10898,1.61601 -0.16685,2.41935 -9.99852,32.68815 -2.6156,12.49069 -75.50054,-33.41211 -20.5836,-7.29215 -24.46853,-8.05935 -11.38767,-9.42713 0.35657,-1.2634 1.02692,-2.6944 1.08455,-3.8376 0.52511,-10.4227 0.13395,-20.93758 0.20855,-31.3682 0.0163,-29.79372 0.15841,-59.5571 -0.25028,-89.34923 -0.79505,-34.45552 -1.91302,-68.92231 -3.12847,-103.36484 0.24476,-11.01492 0.62654,-22.21956 2.04393,-33.24528 -0.0538,-25.96508 0.0926,-51.95869 -0.0833,-77.91988 -0.20191,-49.35449 -0.83616,-98.68476 -0.33369,-148.03946 0.11813,-42.16472 0.7982,-84.52748 -4.17131,-126.47385 l 82.80042,42.17187 c -5.17209,40.49275 -4.28504,81.48108 -4.17132,122.21908 0.24233,23.68769 0.19481,47.3919 0.0833,71.07898 18.03724,-8.30537 37.80334,-9.44105 57.56395,-8.38433 16.62144,3.10999 32.44816,9.49344 47.05229,17.97833 65.91565,38.2965 76.56031,39.59054 118.08955,77.96162 14.99742,14.90839 29.48819,30.32173 43.71524,45.96771 3.22543,-7.88838 6.93245,-16.741 8.59289,-20.73138 14.22223,-26.82412 30.35019,-52.58498 45.59232,-78.83757 l 6.75748,-12.38878 76.75197,44.13239 -7.0078,12.38873 c -4.37435,7.82657 -9.6676,17.43249 -14.34927,25.11126 -10.60155,17.38835 -22.75361,33.88474 -31.91046,52.14126 -9.34036,21.87111 -16.82069,44.49333 -22.52503,67.57505 3.84804,11.31221 6.72903,22.9376 9.594,34.5801 6.37406,36.23563 9.30157,73.43295 7.25808,110.20576 -2.8832,26.89372 -12.16147,52.45156 -17.01892,79.00443 -2.35387,5.3661 -1.13011,11.89112 -3.33704,17.35262 -2.45812,6.08303 -6.36814,8.63023 -11.26252,8.63458 z m -69.53561,-53.47606 c 1.2743,-0.23948 1.9567,-1.35664 2.37765,-2.8365 -0.83433,-0.41842 -1.665,-0.83965 -2.50278,-1.25137 -1.222,-0.6006 -1.21307,4.33936 0.12513,4.08787 z m -70.6201,-354.56056 c 0.34881,0.14694 -7.0519,-4.13846 -12.38879,-7.04951 3.78072,2.17677 7.57794,4.38555 11.38767,6.50723 0.6254,0.34831 0.93901,0.51614 1.00112,0.54228 z M 351.72415,1200 0.16686001,848.69281 0,351.72408 351.30701,0.166855 848.27589,0 1199.833,351.30693 1200,848.27569 848.69301,1199.8331 351.72415,1200 z m 55.18632,-133.3984 386.5128,-0.1251 273.17853,-273.38712 -0.1252,-386.51268 -273.38705,-273.1785 -386.51278,0.12513 -273.17853,273.38706 0.12513,386.5127 273.3871,273.17851 z"
       inkscape:connector-curvature="0" />
  </g>
</svg>
